<svg width="1015" height="752" viewBox="0 0 1015 752" fill="none" xmlns="http://www.w3.org/2000/svg">
<path d="M584.67 613.07C715.047 613.07 820.74 507.378 820.74 377C820.74 246.622 715.047 140.93 584.67 140.93C454.292 140.93 348.6 246.622 348.6 377C348.6 507.378 454.292 613.07 584.67 613.07Z" fill="url(#paint0_linear)"/>
<path d="M541.62 659H267.5C267.5 659 267.33 642.07 267.33 622V232.67C267.33 212.6 283.6 196.34 303.66 196.34H505.66C525.73 196.34 541.99 212.61 541.99 232.67V622C542 642.07 541.62 659 541.62 659Z" fill="#ADD5FF"/>
<path d="M542.11 659.5H267V659C267 658.83 266.83 641.83 266.83 622V232.67C266.83 212.36 283.35 195.84 303.66 195.84H505.66C525.97 195.84 542.49 212.36 542.49 232.67V622C542.49 641.84 542.12 658.84 542.11 659.01V659.5ZM267.99 658.5H541.13C541.19 655.58 541.49 639.95 541.49 622V232.67C541.49 212.91 525.41 196.84 505.66 196.84H303.66C283.9 196.84 267.83 212.91 267.83 232.67V622C267.83 639.94 267.97 655.56 267.99 658.5Z" fill="black"/>
<path d="M340.76 349.83H296.64C293.48 349.83 290.89 347.24 290.89 344.08V318.08C290.89 314.92 293.48 312.33 296.64 312.33H340.76C343.92 312.33 346.51 314.92 346.51 318.08V344.08C346.51 347.24 343.92 349.83 340.76 349.83Z" fill="#007BFB"/>
<path d="M406.94 349.58H362.82C359.66 349.58 357.07 346.99 357.07 343.83V317.83C357.07 314.67 359.66 312.08 362.82 312.08H406.94C410.1 312.08 412.69 314.67 412.69 317.83V343.83C412.69 346.99 410.1 349.58 406.94 349.58Z" fill="#007BFB"/>
<path d="M472.89 349.33H428.77C425.61 349.33 423.02 346.74 423.02 343.58V317.58C423.02 314.42 425.61 311.83 428.77 311.83H472.89C476.05 311.83 478.64 314.42 478.64 317.58V343.58C478.64 346.74 476.05 349.33 472.89 349.33Z" fill="#007BFB"/>
<path d="M345.51 294.83H295.51C292.97 294.83 290.89 292.75 290.89 290.21V283.96C290.89 281.42 292.97 279.34 295.51 279.34H345.51C348.05 279.34 350.13 281.42 350.13 283.96V290.21C350.14 292.75 348.05 294.83 345.51 294.83Z" fill="#007BFB"/>
<path d="M340.76 399.58H296.64C293.48 399.58 290.89 396.99 290.89 393.83V367.83C290.89 364.67 293.48 362.08 296.64 362.08H340.76C343.92 362.08 346.51 364.67 346.51 367.83V393.83C346.51 396.99 343.92 399.58 340.76 399.58Z" fill="#007BFB"/>
<path d="M406.94 399.33H362.82C359.66 399.33 357.07 396.74 357.07 393.58V367.58C357.07 364.42 359.66 361.83 362.82 361.83H406.94C410.1 361.83 412.69 364.42 412.69 367.58V393.58C412.69 396.74 410.1 399.33 406.94 399.33Z" fill="#007BFB"/>
<path d="M472.89 399.08H428.77C425.61 399.08 423.02 396.49 423.02 393.33V367.33C423.02 364.17 425.61 361.58 428.77 361.58H472.89C476.05 361.58 478.64 364.17 478.64 367.33V393.33C478.64 396.49 476.05 399.08 472.89 399.08Z" fill="#007BFB"/>
<path d="M341.01 499.33H296.89C293.73 499.33 291.14 496.74 291.14 493.58V417.83C291.14 414.67 293.73 412.08 296.89 412.08H341.01C344.17 412.08 346.76 414.67 346.76 417.83V493.58C346.76 496.74 344.17 499.33 341.01 499.33Z" fill="#007BFB"/>
<path d="M407.19 449.33H363.07C359.91 449.33 357.32 446.74 357.32 443.58V417.58C357.32 414.42 359.91 411.83 363.07 411.83H407.19C410.35 411.83 412.94 414.42 412.94 417.58V443.58C412.94 446.74 410.35 449.33 407.19 449.33Z" fill="#007BFB"/>
<path d="M473.14 449.08H429.02C425.86 449.08 423.27 446.49 423.27 443.33V417.33C423.27 414.17 425.86 411.58 429.02 411.58H473.14C476.3 411.58 478.89 414.17 478.89 417.33V443.33C478.89 446.49 476.3 449.08 473.14 449.08Z" fill="#007BFB"/>
<path d="M407.44 499.33H363.32C360.16 499.33 357.57 496.74 357.57 493.58V467.58C357.57 464.42 360.16 461.83 363.32 461.83H407.44C410.6 461.83 413.19 464.42 413.19 467.58V493.58C413.19 496.74 410.6 499.33 407.44 499.33Z" fill="#007BFB"/>
<path d="M473.39 499.08H429.27C426.11 499.08 423.52 496.49 423.52 493.33V467.33C423.52 464.17 426.11 461.58 429.27 461.58H473.39C476.55 461.58 479.14 464.17 479.14 467.33V493.33C479.14 496.49 476.55 499.08 473.39 499.08Z" fill="#007BFB"/>
<path d="M341.76 549.92H297.64C294.48 549.92 291.89 547.33 291.89 544.17V518.17C291.89 515.01 294.48 512.42 297.64 512.42H341.76C344.92 512.42 347.51 515.01 347.51 518.17V544.17C347.51 547.33 344.92 549.92 341.76 549.92Z" fill="#007BFB"/>
<path d="M407.94 549.67H363.82C360.66 549.67 358.07 547.08 358.07 543.92V517.92C358.07 514.76 360.66 512.17 363.82 512.17H407.94C411.1 512.17 413.69 514.76 413.69 517.92V543.92C413.69 547.08 411.1 549.67 407.94 549.67Z" fill="#007BFB"/>
<path d="M515.72 638.67H429.77C426.61 638.67 424.02 636.08 424.02 632.92V517.67C424.02 514.51 426.61 511.92 429.77 511.92H515.72C518.88 511.92 521.47 514.51 521.47 517.67V632.92C521.47 636.08 518.88 638.67 515.72 638.67Z" fill="#007BFB"/>
<path d="M341.76 599.58H297.64C294.48 599.58 291.89 596.99 291.89 593.83V567.83C291.89 564.67 294.48 562.08 297.64 562.08H341.76C344.92 562.08 347.51 564.67 347.51 567.83V593.83C347.51 596.99 344.92 599.58 341.76 599.58Z" fill="#007BFB"/>
<path d="M407.94 599.33H363.82C360.66 599.33 358.07 596.74 358.07 593.58V567.58C358.07 564.42 360.66 561.83 363.82 561.83H407.94C411.1 561.83 413.69 564.42 413.69 567.58V593.58C413.69 596.74 411.1 599.33 407.94 599.33Z" fill="#007BFB"/>
<path d="M341.76 639H297.64C294.48 639 291.89 636.41 291.89 633.25V618.35C291.89 615.19 294.48 612.6 297.64 612.6H341.76C344.92 612.6 347.51 615.19 347.51 618.35V633.25C347.51 636.41 344.92 639 341.76 639Z" fill="#007BFB"/>
<path d="M407.94 638.82H363.82C360.66 638.82 358.07 636.23 358.07 633.07V618.17C358.07 615.01 360.66 612.42 363.82 612.42H407.94C411.1 612.42 413.69 615.01 413.69 618.17V633.07C413.69 636.24 411.1 638.82 407.94 638.82Z" fill="#007BFB"/>
<path d="M516.22 398.67H492.55C489.39 398.67 486.8 396.08 486.8 392.92V317.92C486.8 314.76 489.39 312.17 492.55 312.17H516.22C519.38 312.17 521.97 314.76 521.97 317.92V392.92C521.97 396.08 519.38 398.67 516.22 398.67Z" fill="#007BFB"/>
<path d="M516.47 499H492.8C489.64 499 487.05 496.41 487.05 493.25V418.25C487.05 415.09 489.64 412.5 492.8 412.5H516.47C519.63 412.5 522.22 415.09 522.22 418.25V493.25C522.22 496.41 519.63 499 516.47 499Z" fill="#007BFB"/>
<path d="M815.17 658.5H131V659.5H815.17V658.5Z" fill="black"/>
<path d="M355.94 158.5C349.4 155.13 328.49 143.46 328.48 131.84H328.44C328.46 131.37 328.48 130.9 328.48 130.43C328.48 114.95 315.88 102.35 300.4 102.35C284.92 102.35 272.32 114.95 272.32 130.43C272.32 131.16 272.36 131.88 272.41 132.6L271.42 132.61C271.37 131.89 271.33 131.16 271.33 130.43C271.33 121.13 275.72 112.84 282.54 107.52C278.61 88.11 261.41 73.45 240.86 73.45C221.33 73.45 204.84 86.69 199.87 104.66C205.96 109.71 209.85 117.34 209.85 125.85C209.85 128.48 209.47 131.03 208.78 133.45L207.74 133.46C208.46 131.05 208.86 128.49 208.86 125.85C208.86 111.22 196.96 99.31 182.32 99.31C167.69 99.31 155.78 111.21 155.78 125.85C155.78 128.74 156.25 131.53 157.11 134.14L156.07 134.15C155.24 131.53 154.79 128.74 154.79 125.85C154.79 122.62 155.35 119.53 156.38 116.65C155.6 116.55 154.81 116.47 154 116.47C144.1 116.47 136.05 124.52 136.04 134.42C136.04 134.42 136.04 134.42 136.04 134.43C136.04 143.32 116.67 155.11 110.76 158.5H355.94V158.5Z" fill="white"/>
<path d="M358.25 158.55C357.96 158.41 329.46 144.69 329.46 131.83C329.46 131.77 329.45 131.72 329.43 131.67C329.45 131.26 329.46 130.84 329.46 130.42C329.46 114.39 316.42 101.35 300.39 101.35C294.05 101.35 288.18 103.4 283.4 106.85C279.2 87.22 261.72 72.45 240.85 72.45C221.01 72.45 204.24 85.8 199.02 103.99C194.38 100.44 188.59 98.32 182.31 98.32C170.71 98.32 160.78 105.53 156.73 115.7C155.83 115.57 154.92 115.48 153.99 115.48C143.54 115.48 135.04 123.98 135.04 134.43C135.04 144.12 108.88 158.42 108.61 158.56C108.41 158.67 108.31 158.9 108.37 159.12C108.43 159.34 108.62 159.49 108.85 159.49H358.04C358.27 159.49 358.47 159.33 358.52 159.1C358.57 158.87 358.46 158.65 358.25 158.55ZM110.75 158.5C116.67 155.1 136.03 143.32 136.03 134.43C136.03 134.43 136.03 134.43 136.03 134.42C136.03 124.52 144.09 116.47 153.99 116.47C154.8 116.47 155.59 116.54 156.37 116.65C155.35 119.53 154.78 122.62 154.78 125.85C154.78 128.74 155.23 131.53 156.06 134.15L157.1 134.14C156.24 131.53 155.77 128.75 155.77 125.85C155.77 111.22 167.67 99.31 182.31 99.31C196.94 99.31 208.85 111.21 208.85 125.85C208.85 128.49 208.46 131.05 207.73 133.46L208.77 133.45C209.46 131.04 209.84 128.49 209.84 125.85C209.84 117.34 205.95 109.71 199.86 104.66C204.83 86.69 221.32 73.45 240.85 73.45C261.4 73.45 278.59 88.11 282.53 107.52C275.71 112.84 271.32 121.13 271.32 130.43C271.32 131.16 271.36 131.89 271.41 132.61L272.4 132.6C272.35 131.88 272.31 131.16 272.31 130.43C272.31 114.95 284.91 102.35 300.39 102.35C315.87 102.35 328.47 114.95 328.47 130.43C328.47 130.9 328.46 131.38 328.43 131.84H328.47C328.48 143.46 349.39 155.14 355.93 158.5H110.75V158.5Z" fill="black"/>
<path d="M752.5 281.72H812.28V221.94L752.5 281.72Z" fill="#FFD552"/>
<path d="M812.28 282.22H752.5C752.3 282.22 752.12 282.1 752.04 281.91C751.96 281.72 752.01 281.51 752.15 281.37L811.93 221.59C812.07 221.45 812.29 221.41 812.47 221.48C812.66 221.56 812.78 221.74 812.78 221.94V281.72C812.78 282 812.55 282.22 812.28 282.22ZM753.7 281.23H811.79V223.14L753.7 281.23Z" fill="black"/>
<path d="M508 266H301C294.4 266 289 260.6 289 254V238C289 231.4 294.4 226 301 226H508C514.6 226 520 231.4 520 238V254C520 260.6 514.6 266 508 266Z" fill="white"/>
<path d="M508 266.5H301C294.11 266.5 288.5 260.89 288.5 254V238C288.5 231.11 294.11 225.5 301 225.5H508C514.89 225.5 520.5 231.11 520.5 238V254C520.5 260.89 514.89 266.5 508 266.5ZM301 226.5C294.66 226.5 289.5 231.66 289.5 238V254C289.5 260.34 294.66 265.5 301 265.5H508C514.34 265.5 519.5 260.34 519.5 254V238C519.5 231.66 514.34 226.5 508 226.5H301Z" fill="black"/>
<path d="M338.62 346.5H294.5C291.34 346.5 288.75 343.91 288.75 340.75V314.75C288.75 311.59 291.34 309 294.5 309H338.62C341.78 309 344.37 311.59 344.37 314.75V340.75C344.37 343.91 341.78 346.5 338.62 346.5Z" fill="#006EE0"/>
<path d="M338.62 347H294.5C291.05 347 288.25 344.2 288.25 340.75V314.75C288.25 311.3 291.05 308.5 294.5 308.5H338.62C342.07 308.5 344.87 311.3 344.87 314.75V340.75C344.87 344.2 342.07 347 338.62 347ZM294.5 309.5C291.6 309.5 289.25 311.85 289.25 314.75V340.75C289.25 343.65 291.6 346 294.5 346H338.62C341.52 346 343.87 343.65 343.87 340.75V314.75C343.87 311.85 341.52 309.5 338.62 309.5H294.5Z" fill="black"/>
<path d="M404.8 346.25H360.68C357.52 346.25 354.93 343.66 354.93 340.5V314.5C354.93 311.34 357.52 308.75 360.68 308.75H404.8C407.96 308.75 410.55 311.34 410.55 314.5V340.5C410.55 343.66 407.97 346.25 404.8 346.25Z" fill="white"/>
<path d="M404.8 346.75H360.68C357.23 346.75 354.43 343.95 354.43 340.5V314.5C354.43 311.05 357.23 308.25 360.68 308.25H404.8C408.25 308.25 411.05 311.05 411.05 314.5V340.5C411.05 343.95 408.25 346.75 404.8 346.75ZM360.68 309.25C357.78 309.25 355.43 311.6 355.43 314.5V340.5C355.43 343.4 357.78 345.75 360.68 345.75H404.8C407.7 345.75 410.05 343.4 410.05 340.5V314.5C410.05 311.6 407.7 309.25 404.8 309.25H360.68Z" fill="black"/>
<path d="M470.75 346H426.63C423.47 346 420.88 343.41 420.88 340.25V314.25C420.88 311.09 423.47 308.5 426.63 308.5H470.75C473.91 308.5 476.5 311.09 476.5 314.25V340.25C476.5 343.41 473.91 346 470.75 346Z" fill="#006EE0"/>
<path d="M470.75 346.5H426.63C423.18 346.5 420.38 343.7 420.38 340.25V314.25C420.38 310.8 423.18 308 426.63 308H470.75C474.2 308 477 310.8 477 314.25V340.25C477 343.7 474.2 346.5 470.75 346.5ZM426.63 309C423.73 309 421.38 311.35 421.38 314.25V340.25C421.38 343.15 423.73 345.5 426.63 345.5H470.75C473.65 345.5 476 343.15 476 340.25V314.25C476 311.35 473.65 309 470.75 309H426.63Z" fill="black"/>
<path d="M343.38 291.5H293.38C290.84 291.5 288.76 289.42 288.76 286.88V280.63C288.76 278.09 290.84 276.01 293.38 276.01H343.38C345.92 276.01 348 278.09 348 280.63V286.88C348 289.42 345.92 291.5 343.38 291.5Z" fill="#FFD552"/>
<path d="M343.38 292H293.38C290.55 292 288.26 289.7 288.26 286.88V280.63C288.26 277.8 290.56 275.51 293.38 275.51H343.38C346.21 275.51 348.5 277.81 348.5 280.63V286.88C348.5 289.7 346.2 292 343.38 292ZM293.38 276.5C291.11 276.5 289.26 278.35 289.26 280.62V286.87C289.26 289.14 291.11 290.99 293.38 290.99H343.38C345.65 290.99 347.5 289.14 347.5 286.87V280.62C347.5 278.35 345.65 276.5 343.38 276.5H293.38Z" fill="black"/>
<path d="M338.62 396.25H294.5C291.34 396.25 288.75 393.66 288.75 390.5V364.5C288.75 361.34 291.34 358.75 294.5 358.75H338.62C341.78 358.75 344.37 361.34 344.37 364.5V390.5C344.37 393.66 341.78 396.25 338.62 396.25Z" fill="#006EE0"/>
<path d="M338.62 396.75H294.5C291.05 396.75 288.25 393.95 288.25 390.5V364.5C288.25 361.05 291.05 358.25 294.5 358.25H338.62C342.07 358.25 344.87 361.05 344.87 364.5V390.5C344.87 393.95 342.07 396.75 338.62 396.75ZM294.5 359.25C291.6 359.25 289.25 361.6 289.25 364.5V390.5C289.25 393.39 291.6 395.75 294.5 395.75H338.62C341.52 395.75 343.87 393.39 343.87 390.5V364.5C343.87 361.6 341.52 359.25 338.62 359.25H294.5Z" fill="black"/>
<path d="M404.8 396H360.68C357.52 396 354.93 393.41 354.93 390.25V364.25C354.93 361.09 357.52 358.5 360.68 358.5H404.8C407.96 358.5 410.55 361.09 410.55 364.25V390.25C410.55 393.41 407.97 396 404.8 396Z" fill="#FFD552"/>
<path d="M404.8 396.5H360.68C357.23 396.5 354.43 393.7 354.43 390.25V364.25C354.43 360.8 357.23 358 360.68 358H404.8C408.25 358 411.05 360.8 411.05 364.25V390.25C411.05 393.7 408.25 396.5 404.8 396.5ZM360.68 359C357.78 359 355.43 361.35 355.43 364.25V390.25C355.43 393.14 357.78 395.5 360.68 395.5H404.8C407.7 395.5 410.05 393.14 410.05 390.25V364.25C410.05 361.35 407.7 359 404.8 359H360.68Z" fill="black"/>
<path d="M470.75 395.75H426.63C423.47 395.75 420.88 393.16 420.88 390V364C420.88 360.84 423.47 358.25 426.63 358.25H470.75C473.91 358.25 476.5 360.84 476.5 364V390C476.5 393.16 473.91 395.75 470.75 395.75Z" fill="white"/>
<path d="M470.75 396.25H426.63C423.18 396.25 420.38 393.45 420.38 390V364C420.38 360.55 423.18 357.75 426.63 357.75H470.75C474.2 357.75 477 360.55 477 364V390C477 393.45 474.2 396.25 470.75 396.25ZM426.63 358.75C423.73 358.75 421.38 361.1 421.38 364V390C421.38 392.89 423.73 395.25 426.63 395.25H470.75C473.65 395.25 476 392.89 476 390V364C476 361.1 473.65 358.75 470.75 358.75H426.63Z" fill="black"/>
<path d="M338.87 496H294.75C291.59 496 289 493.41 289 490.25V414.5C289 411.34 291.59 408.75 294.75 408.75H338.87C342.03 408.75 344.62 411.34 344.62 414.5V490.25C344.62 493.41 342.03 496 338.87 496Z" fill="white"/>
<path d="M338.87 496.5H294.75C291.3 496.5 288.5 493.7 288.5 490.25V414.5C288.5 411.05 291.3 408.25 294.75 408.25H338.87C342.32 408.25 345.12 411.05 345.12 414.5V490.25C345.12 493.7 342.32 496.5 338.87 496.5ZM294.75 409.25C291.85 409.25 289.5 411.61 289.5 414.5V490.25C289.5 493.14 291.85 495.5 294.75 495.5H338.87C341.77 495.5 344.12 493.14 344.12 490.25V414.5C344.12 411.61 341.77 409.25 338.87 409.25H294.75Z" fill="black"/>
<path d="M405.05 446H360.93C357.77 446 355.18 443.41 355.18 440.25V414.25C355.18 411.09 357.77 408.5 360.93 408.5H405.05C408.21 408.5 410.8 411.09 410.8 414.25V440.25C410.8 443.41 408.22 446 405.05 446Z" fill="#006EE0"/>
<path d="M405.05 446.5H360.93C357.48 446.5 354.68 443.7 354.68 440.25V414.25C354.68 410.8 357.48 408 360.93 408H405.05C408.5 408 411.3 410.8 411.3 414.25V440.25C411.3 443.7 408.5 446.5 405.05 446.5ZM360.93 409C358.03 409 355.68 411.36 355.68 414.25V440.25C355.68 443.14 358.03 445.5 360.93 445.5H405.05C407.95 445.5 410.3 443.14 410.3 440.25V414.25C410.3 411.36 407.95 409 405.05 409H360.93Z" fill="black"/>
<path d="M471 445.75H426.88C423.72 445.75 421.13 443.16 421.13 440V414C421.13 410.84 423.72 408.25 426.88 408.25H471C474.16 408.25 476.75 410.84 476.75 414V440C476.75 443.16 474.16 445.75 471 445.75Z" fill="white"/>
<path d="M471 446.25H426.88C423.43 446.25 420.63 443.45 420.63 440V414C420.63 410.55 423.43 407.75 426.88 407.75H471C474.45 407.75 477.25 410.55 477.25 414V440C477.25 443.45 474.45 446.25 471 446.25ZM426.88 408.75C423.98 408.75 421.63 411.11 421.63 414V440C421.63 442.89 423.98 445.25 426.88 445.25H471C473.9 445.25 476.25 442.89 476.25 440V414C476.25 411.11 473.9 408.75 471 408.75H426.88Z" fill="black"/>
<path d="M405.3 496H361.18C358.02 496 355.43 493.41 355.43 490.25V464.25C355.43 461.09 358.02 458.5 361.18 458.5H405.3C408.46 458.5 411.05 461.09 411.05 464.25V490.25C411.05 493.41 408.47 496 405.3 496Z" fill="#FFD552"/>
<path d="M405.3 496.5H361.18C357.73 496.5 354.93 493.7 354.93 490.25V464.25C354.93 460.8 357.73 458 361.18 458H405.3C408.75 458 411.55 460.8 411.55 464.25V490.25C411.55 493.7 408.75 496.5 405.3 496.5ZM361.18 459C358.28 459 355.93 461.36 355.93 464.25V490.25C355.93 493.14 358.28 495.5 361.18 495.5H405.3C408.2 495.5 410.55 493.14 410.55 490.25V464.25C410.55 461.36 408.2 459 405.3 459H361.18Z" fill="black"/>
<path d="M471.25 495.75H427.13C423.97 495.75 421.38 493.16 421.38 490V464C421.38 460.84 423.97 458.25 427.13 458.25H471.25C474.41 458.25 477 460.84 477 464V490C477 493.16 474.41 495.75 471.25 495.75Z" fill="white"/>
<path d="M471.25 496.25H427.13C423.68 496.25 420.88 493.45 420.88 490V464C420.88 460.55 423.68 457.75 427.13 457.75H471.25C474.7 457.75 477.5 460.55 477.5 464V490C477.5 493.45 474.7 496.25 471.25 496.25ZM427.13 458.75C424.23 458.75 421.88 461.11 421.88 464V490C421.88 492.89 424.23 495.25 427.13 495.25H471.25C474.15 495.25 476.5 492.89 476.5 490V464C476.5 461.11 474.15 458.75 471.25 458.75H427.13Z" fill="black"/>
<path d="M339.62 546.58H295.5C292.34 546.58 289.75 543.99 289.75 540.83V514.83C289.75 511.67 292.34 509.08 295.5 509.08H339.62C342.78 509.08 345.37 511.67 345.37 514.83V540.83C345.37 544 342.78 546.58 339.62 546.58Z" fill="#006EE0"/>
<path d="M339.62 547.08H295.5C292.05 547.08 289.25 544.28 289.25 540.83V514.83C289.25 511.38 292.05 508.58 295.5 508.58H339.62C343.07 508.58 345.87 511.38 345.87 514.83V540.83C345.87 544.28 343.07 547.08 339.62 547.08ZM295.5 509.58C292.6 509.58 290.25 511.94 290.25 514.83V540.83C290.25 543.72 292.6 546.08 295.5 546.08H339.62C342.52 546.08 344.87 543.72 344.87 540.83V514.83C344.87 511.94 342.52 509.58 339.62 509.58H295.5V509.58Z" fill="black"/>
<path d="M405.8 546.33H361.68C358.52 546.33 355.93 543.74 355.93 540.58V514.58C355.93 511.42 358.52 508.83 361.68 508.83H405.8C408.96 508.83 411.55 511.42 411.55 514.58V540.58C411.55 543.75 408.97 546.33 405.8 546.33Z" fill="#FFD552"/>
<path d="M405.8 546.83H361.68C358.23 546.83 355.43 544.03 355.43 540.58V514.58C355.43 511.13 358.23 508.33 361.68 508.33H405.8C409.25 508.33 412.05 511.13 412.05 514.58V540.58C412.05 544.03 409.25 546.83 405.8 546.83ZM361.68 509.33C358.78 509.33 356.43 511.69 356.43 514.58V540.58C356.43 543.47 358.78 545.83 361.68 545.83H405.8C408.7 545.83 411.05 543.47 411.05 540.58V514.58C411.05 511.69 408.7 509.33 405.8 509.33H361.68V509.33Z" fill="black"/>
<path d="M513.58 635.33H427.63C424.47 635.33 421.88 632.74 421.88 629.58V514.33C421.88 511.17 424.47 508.58 427.63 508.58H513.58C516.74 508.58 519.33 511.17 519.33 514.33V629.58C519.33 632.75 516.75 635.33 513.58 635.33Z" fill="#006EE0"/>
<path d="M513.58 635.83H427.63C424.18 635.83 421.38 633.03 421.38 629.58V514.33C421.38 510.88 424.18 508.08 427.63 508.08H513.58C517.03 508.08 519.83 510.88 519.83 514.33V629.58C519.83 633.03 517.03 635.83 513.58 635.83ZM427.63 509.08C424.73 509.08 422.38 511.44 422.38 514.33V629.58C422.38 632.47 424.73 634.83 427.63 634.83H513.58C516.47 634.83 518.83 632.47 518.83 629.58V514.33C518.83 511.44 516.47 509.08 513.58 509.08H427.63V509.08Z" fill="black"/>
<path d="M339.62 596.25H295.5C292.34 596.25 289.75 593.66 289.75 590.5V564.5C289.75 561.34 292.34 558.75 295.5 558.75H339.62C342.78 558.75 345.37 561.34 345.37 564.5V590.5C345.37 593.66 342.78 596.25 339.62 596.25Z" fill="#FFD552"/>
<path d="M339.62 596.75H295.5C292.05 596.75 289.25 593.95 289.25 590.5V564.5C289.25 561.05 292.05 558.25 295.5 558.25H339.62C343.07 558.25 345.87 561.05 345.87 564.5V590.5C345.87 593.95 343.07 596.75 339.62 596.75ZM295.5 559.25C292.6 559.25 290.25 561.61 290.25 564.5V590.5C290.25 593.39 292.6 595.75 295.5 595.75H339.62C342.52 595.75 344.87 593.39 344.87 590.5V564.5C344.87 561.61 342.52 559.25 339.62 559.25H295.5Z" fill="black"/>
<path d="M405.8 596H361.68C358.52 596 355.93 593.41 355.93 590.25V564.25C355.93 561.09 358.52 558.5 361.68 558.5H405.8C408.96 558.5 411.55 561.09 411.55 564.25V590.25C411.55 593.41 408.97 596 405.8 596Z" fill="white"/>
<path d="M405.8 596.5H361.68C358.23 596.5 355.43 593.7 355.43 590.25V564.25C355.43 560.8 358.23 558 361.68 558H405.8C409.25 558 412.05 560.8 412.05 564.25V590.25C412.05 593.7 409.25 596.5 405.8 596.5ZM361.68 559C358.78 559 356.43 561.36 356.43 564.25V590.25C356.43 593.14 358.78 595.5 361.68 595.5H405.8C408.7 595.5 411.05 593.14 411.05 590.25V564.25C411.05 561.36 408.7 559 405.8 559H361.68Z" fill="black"/>
<path d="M339.62 635.67H295.5C292.34 635.67 289.75 633.08 289.75 629.92V615.02C289.75 611.86 292.34 609.27 295.5 609.27H339.62C342.78 609.27 345.37 611.86 345.37 615.02V629.92C345.37 633.08 342.78 635.67 339.62 635.67Z" fill="white"/>
<path d="M339.62 636.17H295.5C292.05 636.17 289.25 633.37 289.25 629.92V615.02C289.25 611.57 292.05 608.77 295.5 608.77H339.62C343.07 608.77 345.87 611.57 345.87 615.02V629.92C345.87 633.36 343.07 636.17 339.62 636.17ZM295.5 609.77C292.6 609.77 290.25 612.13 290.25 615.02V629.92C290.25 632.81 292.6 635.17 295.5 635.17H339.62C342.52 635.17 344.87 632.81 344.87 629.92V615.02C344.87 612.13 342.52 609.77 339.62 609.77H295.5Z" fill="black"/>
<path d="M405.8 635.49H361.68C358.52 635.49 355.93 632.9 355.93 629.74V614.84C355.93 611.68 358.52 609.09 361.68 609.09H405.8C408.96 609.09 411.55 611.68 411.55 614.84V629.74C411.55 632.9 408.97 635.49 405.8 635.49Z" fill="white"/>
<path d="M405.8 635.99H361.68C358.23 635.99 355.43 633.19 355.43 629.74V614.84C355.43 611.39 358.23 608.59 361.68 608.59H405.8C409.25 608.59 412.05 611.39 412.05 614.84V629.74C412.05 633.19 409.25 635.99 405.8 635.99ZM361.68 609.59C358.78 609.59 356.43 611.95 356.43 614.84V629.74C356.43 632.63 358.78 634.99 361.68 634.99H405.8C408.7 634.99 411.05 632.63 411.05 629.74V614.84C411.05 611.95 408.7 609.59 405.8 609.59H361.68Z" fill="black"/>
<path d="M514.08 395.33H490.41C487.25 395.33 484.66 392.74 484.66 389.58V314.58C484.66 311.42 487.25 308.83 490.41 308.83H514.08C517.24 308.83 519.83 311.42 519.83 314.58V389.58C519.83 392.75 517.25 395.33 514.08 395.33Z" fill="#FFD552"/>
<path d="M514.08 395.83H490.41C486.96 395.83 484.16 393.03 484.16 389.58V314.58C484.16 311.13 486.96 308.33 490.41 308.33H514.08C517.53 308.33 520.33 311.13 520.33 314.58V389.58C520.33 393.03 517.53 395.83 514.08 395.83ZM490.42 309.33C487.52 309.33 485.17 311.68 485.17 314.58V389.58C485.17 392.47 487.52 394.83 490.42 394.83H514.09C516.98 394.83 519.34 392.47 519.34 389.58V314.58C519.34 311.68 516.98 309.33 514.09 309.33H490.42Z" fill="black"/>
<path d="M514.33 495.67H490.66C487.5 495.67 484.91 493.08 484.91 489.92V414.92C484.91 411.76 487.5 409.17 490.66 409.17H514.33C517.49 409.17 520.08 411.76 520.08 414.92V489.92C520.08 493.08 517.5 495.67 514.33 495.67Z" fill="#006EE0"/>
<path d="M514.33 496.17H490.66C487.21 496.17 484.41 493.37 484.41 489.92V414.92C484.41 411.47 487.21 408.67 490.66 408.67H514.33C517.78 408.67 520.58 411.47 520.58 414.92V489.92C520.58 493.36 517.78 496.17 514.33 496.17ZM490.67 409.67C487.77 409.67 485.42 412.03 485.42 414.92V489.92C485.42 492.81 487.77 495.17 490.67 495.17H514.34C517.23 495.17 519.59 492.81 519.59 489.92V414.92C519.59 412.03 517.23 409.67 514.34 409.67H490.67Z" fill="black"/>
<path d="M329.67 266.33H321.34C320.33 266.33 319.51 265.51 319.51 264.5V239.17C319.51 238.16 320.33 237.34 321.34 237.34H329.67C330.68 237.34 331.5 238.16 331.5 239.17V264.5C331.5 265.51 330.68 266.33 329.67 266.33ZM321.33 238.33C320.87 238.33 320.5 238.7 320.5 239.16V264.49C320.5 264.95 320.87 265.32 321.33 265.32H329.66C330.12 265.32 330.49 264.95 330.49 264.49V239.16C330.49 238.7 330.12 238.33 329.66 238.33H321.33Z" fill="black"/>
<path d="M310.16 253.75L303.54 253.66C301.87 253.64 300.5 252.26 300.5 250.58V237.62H301.5V250.58C301.5 251.71 302.42 252.64 303.55 252.66L310.17 252.75L310.16 253.75Z" fill="black"/>
<path d="M310.67 237.62H309.67V265.5H310.67V237.62Z" fill="black"/>
<path d="M349.349 254L342.729 253.91C341.059 253.89 339.689 252.51 339.689 250.83V237.87H340.689V250.83C340.689 251.96 341.609 252.89 342.739 252.91L349.359 253L349.349 254Z" fill="black"/>
<path d="M349.85 237.88H348.85V265.76H349.85V237.88Z" fill="black"/>
<path d="M752.762 149.187L686.33 215.619L687.037 216.326L753.469 149.894L752.762 149.187Z" fill="black"/>
<path d="M766.752 163.177L700.32 229.609L701.027 230.316L767.459 163.884L766.752 163.177Z" fill="black"/>
<path d="M629.85 514.01L627.93 514.66C621.45 526.8 600.35 566 594.88 572.33C592.27 575.35 577.06 591.2 572.44 588.78C568.71 586.83 565.02 585.89 561.76 586.05C557.89 586.24 554.99 588.04 553.59 591.11C552.78 592.85 552.46 594.99 552.62 597.48C552.67 598.26 553.72 599.02 555.58 599.62C568.2 603.71 610.97 599.76 628.83 578.63C621.03 549.88 628.59 518.78 629.85 514.01Z" fill="white"/>
<path d="M622.78 445.48C624.8 446.99 626 449.33 626 451.87C626 451.93 625.99 451.98 625.99 452.04C627.11 451.34 629.3 450.29 631.85 450.67C634.13 451.01 636.16 452.44 637.89 454.88C639.29 452.35 641.95 450.74 644.88 450.74C649.29 450.74 652.88 454.33 652.88 458.74C652.88 459.04 652.86 459.35 652.82 459.66C654.5 459.3 660.93 458.02 668.51 457.79C676.37 457.55 687.06 458.45 694.06 463.89C694.19 462.17 694.34 460.26 694.51 458.23C695.16 450.2 696.52 433.49 694.83 432.84C693.38 432.28 685.43 438.71 678.6 445.23L678.24 445.57L677.89 445.21C667.11 434.02 656.69 432.3 653.72 432.03V432.1C650.84 431.91 647.43 432.22 645.94 432.39C645.47 432.44 645.2 432.48 645.2 432.48L644.78 432.54L644.65 432.14C644.43 431.43 644.16 430.7 643.86 429.98L643.81 429.86C643.79 429.81 643.77 429.75 643.74 429.7C643.47 429.06 643.17 428.41 642.83 427.76L642.72 427.54C642.72 427.53 642.71 427.52 642.71 427.51L642.65 427.4C640.31 422.88 637.12 418.91 636.17 417.77C636.15 417.82 636.12 417.85 636.1 417.9C634.02 423.65 632.4 437.15 632.39 437.29L632.36 437.53L632.16 437.66C628.5 440 625.35 442.63 622.78 445.48ZM681.22 448.75C681.81 447.83 689.62 438.54 691.73 439.68C692.21 439.94 693.5 440.64 690.13 456.72C690.03 457.21 689.63 457.59 689.12 457.64C689.06 457.65 689 457.65 688.95 457.65C688.56 457.65 688.18 457.43 687.97 457.07C687.42 456.12 686.78 455.21 686.06 454.34L685.99 454.25C684.64 452.61 683.02 451.1 681.2 449.78C680.77 449.46 681.1 448.94 681.22 448.75Z" fill="white"/>
<path d="M842.35 555.96C835.51 530.87 818.59 509.32 808.61 507.52C806.25 507.09 804.39 507.8 803.08 509.62C799.02 515.27 801.96 518.42 807.82 524.68C812.49 529.68 818.89 536.52 824.78 547.93C834.35 566.47 825.12 594.1 815.5 607.81C810.25 615.28 804.7 619.23 800.27 618.66C791.38 617.49 788.22 607.29 784.22 594.38C781.74 586.39 778.93 577.32 774.24 568.9C766.63 555.25 747.46 539.59 730.54 525.78C720.59 517.65 712 510.64 707.38 505.32C697.4 493.82 692.99 481.11 693.89 466.46C693.92 466.04 693.95 465.59 693.98 465.12V465.09C681.06 454.27 653.11 460.62 652.63 460.73C651.73 464.24 648.55 466.75 644.88 466.75C640.47 466.75 636.88 463.16 636.88 458.75C636.88 457.77 637.06 456.83 637.4 455.93C635.76 453.43 633.85 451.99 631.71 451.67C628.67 451.21 626.11 453.16 625.85 453.36C625.16 457.09 621.84 459.88 618 459.88C617.01 459.88 616.05 459.69 615.15 459.34C614.33 462.41 613.92 465.63 613.96 468.92C614.48 469.99 616.72 474.13 619.96 474.27C622.26 474.39 624.58 472.45 626.93 468.63C625.36 468.11 624.26 466.64 624.26 464.93C624.26 462.77 626.02 461.01 628.18 461.01C630.34 461.01 632.09 462.77 632.09 464.93C632.09 466.67 630.92 468.18 629.3 468.67C629.83 471.16 631.13 475.12 634.23 476.34C636.67 477.29 639.81 476.38 643.6 473.62L644.19 474.43C641.2 476.61 638.53 477.71 636.23 477.71C635.39 477.71 634.61 477.57 633.87 477.28C630.32 475.89 628.88 471.53 628.32 468.85C628.28 468.85 628.23 468.86 628.19 468.86C628.13 468.86 628.06 468.85 628 468.84C625.43 473.11 622.79 475.29 620.13 475.29C620.06 475.29 619.99 475.29 619.92 475.29C617.23 475.18 615.2 472.85 614.04 471.08C614.69 481.71 619.27 490.46 620.57 492.75C621.23 492.68 621.9 492.85 622.44 493.25L636.34 503.4C637.54 504.28 639.09 504.5 640.5 503.99L662.39 495.99C663.29 495.66 664.27 495.84 665 496.45C665.73 497.06 666.07 497.98 665.92 498.91L662.6 519.09C662.4 520.31 661.65 521.31 660.54 521.84C660.02 522.09 659.47 522.22 658.92 522.22C658.3 522.22 657.68 522.06 657.12 521.75L638.15 511.25L630.99 513.67L631.01 513.68C630.91 514.02 621.41 547.8 629.89 578.66C633.65 592.39 640.43 603.57 650.02 611.93C644.52 596.05 648.38 580.23 652.7 569.59C657.55 557.65 664.01 549.49 664.08 549.41L664.86 550.03C664.61 550.35 639.48 582.39 651.61 613.37C652.71 616.19 654.11 618.96 655.78 621.62C657.89 624.39 668.53 638.51 668.35 640.6C668.28 641.5 667.04 641.54 664.58 641.61C660.58 641.72 653.89 641.92 650.8 646.16C648.81 648.89 648.56 653.01 650.07 658.38L688.4 658.42C688.69 652.97 690.34 648.94 693.32 646.47C698.59 642.11 706.92 643.37 712.44 644.21L713.6 644.38C714.07 644.46 715.82 643.92 716.36 642.84C716.74 642.09 716.4 641.2 715.38 640.2C694.81 620.12 689.95 600.14 700.92 580.8C706.98 570.13 714.83 563.45 724.25 560.93C739.02 556.99 752.64 564.87 752.78 564.95L752.27 565.81C752.14 565.73 738.86 558.06 724.5 561.9C715.35 564.35 707.71 570.87 701.79 581.3C691.07 600.19 695.87 619.76 716.08 639.49C717.79 641.15 717.66 642.48 717.26 643.29C716.51 644.8 714.33 645.51 713.46 645.38L712.3 645.21C706.96 644.4 698.9 643.17 693.97 647.25C691.22 649.53 689.69 653.3 689.41 658.43L814.48 658.56C839.83 630.82 849.53 582.29 842.35 555.96Z" fill="white"/>
<path d="M644.88 451.75C642.08 451.75 639.55 453.42 638.44 456C638.07 456.87 637.88 457.79 637.88 458.75C637.88 462.61 641.02 465.75 644.88 465.75C648.21 465.75 651.1 463.38 651.75 460.11C651.84 459.66 651.88 459.2 651.88 458.75C651.88 454.89 648.74 451.75 644.88 451.75Z" fill="#FFD552"/>
<path d="M615.01 458.2C615.95 458.65 616.95 458.88 618 458.88C621.44 458.88 624.42 456.32 624.92 452.92C624.98 452.58 625 452.23 625 451.88C625 449.48 623.79 447.27 621.76 445.98C620.65 445.26 619.35 444.88 618 444.88C614.14 444.88 611 448.02 611 451.88C611 454.58 612.58 457.06 615.01 458.2Z" fill="#FFD552"/>
<path d="M843.31 555.7C836.26 529.85 819.27 508.43 808.78 506.54C806.05 506.05 803.79 506.91 802.26 509.04C797.72 515.36 801.05 518.91 807.08 525.37C811.71 530.32 818.06 537.11 823.88 548.4C833.26 566.57 824.14 593.75 814.67 607.24C809.65 614.4 804.44 618.21 800.39 617.67C792.14 616.59 789.06 606.66 785.16 594.09C782.67 586.05 779.84 576.93 775.1 568.42C767.4 554.6 748.15 538.88 731.16 525.01C721.24 516.91 712.68 509.92 708.12 504.66C698.32 493.37 693.99 480.9 694.87 466.52C694.9 466.1 694.93 465.65 694.96 465.19L694.98 464.9C695.12 462.96 695.3 460.71 695.49 458.31C696.92 440.69 697.21 432.69 695.17 431.91C692.5 430.9 681.31 441.28 678.25 444.17C666.24 431.9 654.98 431.05 653.11 431C652.47 430.18 649.85 426.86 646.84 423.61L646.71 423.4H646.65C643.64 420.14 641.17 417.95 639.3 416.9L639.22 416.85C638.31 416.35 637.55 416.13 636.96 416.16C636.36 416.18 635.56 416.44 635.14 417.58C633.15 423.08 631.63 435.07 631.4 436.96C627.71 439.34 624.52 442.02 621.91 444.94C620.72 444.26 619.38 443.89 617.98 443.89C613.57 443.89 609.98 447.48 609.98 451.89C609.98 454.83 611.63 457.54 614.2 458.91C613.31 462.15 612.87 465.55 612.93 469.05C612.93 469.06 612.93 469.06 612.93 469.07L612.9 469.08C612.9 469.08 612.91 469.11 612.94 469.16C613.09 480.55 618 490.24 619.56 493.02C618.76 493.44 618.21 494.22 618.13 495.15L616.37 513.96C616.27 515.01 616.7 516.03 617.54 516.69C618.37 517.35 619.46 517.53 620.46 517.19L626.53 515.14C619.53 528.23 599.38 565.58 594.12 571.68C589.26 577.31 576.18 589.61 572.9 587.89C569.12 585.92 565.36 584.94 561.99 585.04L341.91 268.21L341.08 268.77L552.57 590.95C551.78 592.79 551.45 594.99 551.62 597.53C551.7 598.78 552.93 599.79 555.27 600.55C558.16 601.49 562.6 602.01 567.96 602.01C586.18 602.01 614.96 595.98 629.15 579.76C633.2 593.92 640.44 605.37 650.7 613.8C651.81 616.63 653.23 619.42 654.93 622.13C660.89 629.97 667.02 638.74 667.32 640.34C666.92 640.48 665.65 640.52 664.53 640.55C660.35 640.67 653.35 640.87 649.97 645.52C647.74 648.58 647.48 653.1 649.19 658.97L649.3 659.33L814.67 659.5H814.89L815.04 659.34C840.75 631.45 850.58 582.34 843.31 555.7ZM689.38 658.37C689.66 653.24 691.18 649.47 693.94 647.19C698.87 643.11 706.93 644.34 712.27 645.15L713.43 645.32C714.3 645.45 716.48 644.74 717.23 643.23C717.63 642.41 717.76 641.09 716.05 639.43C695.85 619.71 691.04 600.13 701.76 581.24C707.68 570.82 715.32 564.29 724.47 561.84C738.83 558 752.11 565.67 752.24 565.75L752.75 564.89C752.62 564.81 738.99 556.93 724.22 560.87C714.8 563.39 706.95 570.07 700.89 580.74C689.91 600.07 694.78 620.05 715.35 640.14C716.38 641.14 716.71 642.03 716.33 642.78C715.79 643.87 714.04 644.4 713.57 644.32L712.41 644.15C706.9 643.31 698.56 642.05 693.29 646.41C690.3 648.88 688.66 652.91 688.37 658.36L650.04 658.32C648.54 652.94 648.78 648.83 650.77 646.1C653.86 641.85 660.55 641.66 664.55 641.55C667.01 641.48 668.25 641.44 668.32 640.54C668.5 638.45 657.86 624.33 655.75 621.56C654.08 618.9 652.68 616.13 651.58 613.31C639.45 582.34 664.57 550.29 664.83 549.97L664.05 549.35C663.98 549.43 657.52 557.6 652.67 569.53C648.35 580.17 644.49 595.99 649.99 611.87C640.39 603.51 633.62 592.33 629.86 578.6C621.38 547.74 630.88 513.96 630.98 513.62L630.96 513.61L638.12 511.19L657.09 521.69C657.66 522 658.28 522.16 658.89 522.16C659.44 522.16 659.99 522.04 660.51 521.78C661.62 521.25 662.37 520.24 662.57 519.03L665.89 498.85C666.05 497.91 665.7 496.99 664.97 496.39C664.24 495.78 663.26 495.61 662.36 495.93L640.47 503.93C639.07 504.44 637.52 504.22 636.31 503.34L622.41 493.19C621.87 492.79 621.21 492.63 620.54 492.69C619.24 490.4 614.66 481.65 614.01 471.02C615.17 472.79 617.21 475.12 619.89 475.23C619.96 475.23 620.03 475.23 620.1 475.23C622.76 475.23 625.4 473.05 627.97 468.78C628.03 468.78 628.1 468.8 628.16 468.8C628.2 468.8 628.25 468.79 628.29 468.79C628.85 471.47 630.29 475.83 633.84 477.22C634.58 477.51 635.36 477.65 636.2 477.65C638.5 477.65 641.17 476.55 644.16 474.37L643.57 473.56C639.79 476.32 636.64 477.24 634.2 476.28C631.1 475.07 629.8 471.1 629.27 468.61C630.89 468.13 632.06 466.61 632.06 464.87C632.06 462.71 630.31 460.95 628.15 460.95C625.99 460.95 624.23 462.71 624.23 464.87C624.23 466.58 625.34 468.05 626.9 468.57C624.54 472.4 622.23 474.33 619.93 474.21C616.69 474.07 614.45 469.93 613.93 468.86C613.89 465.56 614.3 462.35 615.12 459.28C616.03 459.63 616.98 459.82 617.97 459.82C621.81 459.82 625.13 457.03 625.82 453.3C626.08 453.1 628.64 451.14 631.68 451.61C633.82 451.94 635.73 453.37 637.37 455.87C637.03 456.77 636.85 457.71 636.85 458.69C636.85 463.1 640.44 466.69 644.85 466.69C648.51 466.69 651.7 464.18 652.6 460.67C653.08 460.56 681.03 454.21 693.95 465.03V465.06C693.92 465.53 693.89 465.98 693.86 466.4C692.96 481.05 697.37 493.76 707.35 505.26C711.97 510.58 720.56 517.6 730.51 525.72C747.43 539.53 766.6 555.19 774.21 568.84C778.9 577.26 781.71 586.32 784.19 594.32C788.19 607.23 791.35 617.43 800.24 618.6C804.67 619.17 810.22 615.22 815.47 607.75C825.09 594.05 834.33 566.41 824.75 547.87C818.86 536.46 812.46 529.61 807.79 524.62C801.93 518.35 798.99 515.2 803.05 509.56C804.36 507.74 806.21 507.03 808.58 507.46C818.56 509.26 835.48 530.81 842.32 555.9C849.5 582.23 839.8 630.76 814.42 658.44L689.38 658.37ZM555.58 599.6C553.73 599 552.68 598.24 552.62 597.46C552.45 594.97 552.78 592.83 553.59 591.09C554.99 588.02 557.89 586.22 561.76 586.03C565.02 585.88 568.71 586.82 572.44 588.76C577.06 591.18 592.27 575.33 594.88 572.31C600.34 565.98 621.44 526.78 627.93 514.64L629.85 513.99C628.59 518.76 621.03 549.86 628.83 578.6C610.97 599.74 568.19 603.7 555.58 599.6ZM618 444.88C619.35 444.88 620.65 445.26 621.76 445.98C623.79 447.27 625 449.48 625 451.88C625 452.23 624.97 452.58 624.92 452.92C624.42 456.32 621.45 458.88 618 458.88C616.95 458.88 615.95 458.65 615.01 458.2C612.57 457.06 611 454.58 611 451.88C611 448.02 614.14 444.88 618 444.88ZM632.35 437.54L632.38 437.3C632.4 437.16 634.02 423.66 636.09 417.91C636.11 417.85 636.14 417.82 636.16 417.78C637.11 418.92 640.3 422.89 642.64 427.41L642.7 427.52C642.7 427.53 642.71 427.54 642.71 427.55L642.82 427.77C643.16 428.42 643.46 429.06 643.73 429.71C643.76 429.76 643.78 429.81 643.8 429.87L643.85 429.99C644.15 430.72 644.41 431.44 644.64 432.15L644.77 432.55L645.19 432.49C645.2 432.49 645.47 432.45 645.93 432.4C647.43 432.23 650.83 431.93 653.71 432.11V432.04C656.67 432.3 667.1 434.03 677.88 445.22L678.23 445.58L678.59 445.24C685.42 438.71 693.37 432.29 694.82 432.85C696.51 433.5 695.16 450.21 694.5 458.24C694.33 460.27 694.18 462.18 694.05 463.9C687.05 458.46 676.37 457.56 668.5 457.8C660.92 458.03 654.49 459.31 652.81 459.67C652.84 459.36 652.87 459.06 652.87 458.75C652.87 454.34 649.28 450.75 644.87 450.75C641.94 450.75 639.28 452.36 637.88 454.89C636.15 452.45 634.12 451.02 631.84 450.68C629.29 450.3 627.1 451.35 625.98 452.05C625.98 451.99 625.99 451.94 625.99 451.88C625.99 449.33 624.79 446.99 622.77 445.49C625.35 442.63 628.49 440.01 632.14 437.68L632.35 437.54ZM651.88 458.75C651.88 459.2 651.84 459.66 651.75 460.11C651.1 463.38 648.21 465.75 644.88 465.75C641.02 465.75 637.88 462.61 637.88 458.75C637.88 457.79 638.07 456.86 638.44 456C639.55 453.42 642.08 451.75 644.88 451.75C648.74 451.75 651.88 454.89 651.88 458.75Z" fill="black"/>
<path d="M686 454.26L686.07 454.35C686.79 455.22 687.43 456.13 687.98 457.08C688.19 457.45 688.57 457.66 688.96 457.66C689.02 457.66 689.08 457.66 689.13 457.65C689.64 457.59 690.05 457.22 690.14 456.73C693.5 440.65 692.22 439.95 691.74 439.69C689.62 438.55 681.81 447.84 681.23 448.76C681.11 448.95 680.78 449.47 681.21 449.8C683.03 451.11 684.64 452.62 686 454.26Z" fill="black"/>
<path d="M162.92 569.28L163.75 568.73C163.94 569.01 177.21 589.31 184.63 618.85C187.9 616.73 189.17 610.09 188.12 600.36C186.96 589.62 183.18 576.28 177.49 562.79C166.7 537.21 152.11 518.41 143.55 518.41C142.85 518.41 142.18 518.54 141.57 518.8C137.79 520.4 136.26 527.27 137.38 537.66C138.54 548.4 142.32 561.74 148.01 575.23C159.59 602.67 175.52 622.29 183.72 619.3C176.35 589.83 163.1 569.56 162.92 569.28Z" fill="#FFD552"/>
<path d="M189.11 600.24C187.94 589.41 184.14 575.97 178.41 562.39C166.31 533.72 149.96 514.17 141.17 517.86C136.89 519.67 135.19 526.73 136.38 537.75C137.55 548.58 141.35 562.02 147.08 575.6C158.19 601.93 172.89 620.58 182.02 620.58C182.7 620.58 183.34 620.47 183.95 620.26C186.78 631.88 188.68 644.89 188.49 658.65L189.49 658.66C189.68 644.74 187.75 631.58 184.87 619.83C188.75 617.67 190.25 610.77 189.11 600.24ZM148.01 575.22C142.32 561.73 138.54 548.39 137.38 537.65C136.26 527.26 137.78 520.38 141.57 518.79C142.19 518.53 142.85 518.4 143.55 518.4C152.12 518.4 166.7 537.2 177.49 562.78C183.18 576.27 186.96 589.61 188.12 600.35C189.17 610.08 187.9 616.72 184.63 618.84C177.21 589.3 163.94 569 163.75 568.72L162.92 569.27C163.11 569.55 176.36 589.82 183.72 619.28C175.52 622.28 159.59 602.66 148.01 575.22Z" fill="black"/>
<path d="M221.25 535.25C244.41 535.25 263.25 516.41 263.25 493.25C263.25 470.09 244.41 451.25 221.25 451.25C198.09 451.25 179.25 470.09 179.25 493.25C179.25 512.93 192.86 529.49 211.16 534.02C214.69 509.12 220.99 496.65 221.05 496.52L221.94 496.98C221.81 497.23 215.72 509.54 212.23 534.27C215.14 534.9 218.16 535.25 221.25 535.25Z" fill="#ADD5FF"/>
<path d="M259.76 541.62C259.05 541.12 258.16 540.88 257.12 540.88C254.79 540.88 251.72 542.13 248.27 544.54C243.08 548.17 237.57 553.97 232.75 560.88C225.27 571.6 221.17 582.77 221.97 588.9C231.38 574.02 240.15 565.8 240.33 565.63L241.01 566.37C240.83 566.54 231.81 575.01 222.27 590.31C222.61 591.43 223.18 592.31 223.99 592.88C226.32 594.51 230.51 593.44 235.48 589.96C240.67 586.33 246.18 580.53 251 573.62C260.69 559.73 264.71 545.08 259.76 541.62Z" fill="white"/>
<path d="M260.33 540.8C257.6 538.89 253.11 539.93 247.69 543.72C242.41 547.41 236.81 553.3 231.92 560.3C223.63 572.17 219.59 583.93 221.17 590.15C218.05 595.18 214.9 600.93 211.97 607.35C208.61 576.99 209.67 553 212.09 535.25C215.04 535.89 218.1 536.24 221.24 536.24C244.95 536.24 264.24 516.95 264.24 493.24C264.24 469.53 244.95 450.24 221.24 450.24C197.53 450.24 178.24 469.53 178.24 493.24C178.24 513.43 192.23 530.4 211.02 535C210.95 535.51 210.88 536.02 210.81 536.55C208.65 553.18 207.51 577.48 211.17 609.16C205.14 622.88 200.26 639.51 199.16 658.63L200.16 658.69C201.21 640.42 205.73 624.45 211.4 611.13C213.15 625.62 215.9 641.62 220 659.11L220.97 658.88C216.73 640.82 213.92 624.3 212.19 609.31C215.15 602.61 218.38 596.61 221.58 591.38C222 592.35 222.61 593.14 223.41 593.69C224.3 594.31 225.39 594.62 226.63 594.62C229.18 594.62 232.4 593.32 236.05 590.77C241.33 587.08 246.93 581.19 251.82 574.19C262.17 559.36 265.91 544.7 260.33 540.8ZM221.06 496.52C220.99 496.65 214.7 509.12 211.17 534.02C192.87 529.49 179.26 512.93 179.26 493.25C179.26 470.09 198.1 451.25 221.26 451.25C244.42 451.25 263.26 470.09 263.26 493.25C263.26 516.41 244.42 535.25 221.26 535.25C218.17 535.25 215.15 534.9 212.24 534.27C215.73 509.55 221.82 497.23 221.95 496.98L221.06 496.52ZM235.48 589.96C230.51 593.44 226.32 594.51 223.99 592.88C223.18 592.31 222.61 591.43 222.27 590.31C231.81 575.01 240.83 566.54 241.01 566.37L240.33 565.63C240.15 565.8 231.39 574.03 221.97 588.9C221.18 582.77 225.27 571.6 232.75 560.88C237.57 553.97 243.08 548.17 248.27 544.54C251.72 542.13 254.79 540.88 257.12 540.88C258.15 540.88 259.04 541.13 259.76 541.62C264.7 545.07 260.69 559.72 251 573.61C246.18 580.52 240.67 586.33 235.48 589.96Z" fill="black"/>
<g opacity="0.2">
<g opacity="0.2">
<path opacity="0.2" d="M697.12 644.75C697.12 644.75 684.5 647.37 683.74 659.25L688.49 659.37C688.5 659.38 688.12 647.88 697.12 644.75Z" fill="black"/>
</g>
</g>
<g opacity="0.2">
<g opacity="0.2">
<path opacity="0.2" d="M703.67 625.75C703.67 625.42 712.84 642.08 702.59 643.67L713.34 644.84C713.34 644.84 719.01 644.01 716.76 640.84C714.51 637.67 708.93 632.92 708.93 632.92L703.67 625.75Z" fill="black"/>
</g>
</g>
<g opacity="0.2">
<g opacity="0.2">
<path opacity="0.2" d="M623.62 473.62C623.62 473.62 624.18 476.93 627.18 476.93C630.18 476.93 631.68 475.12 631.68 475.12C631.68 475.12 628.37 471.06 628.12 467.12C628.12 467.12 625.19 472.62 623.62 473.62Z" fill="black"/>
</g>
</g>
<g opacity="0.2">
<g opacity="0.2">
<path opacity="0.2" d="M625.82 548.2C617.27 582.18 606.19 594.58 601.18 596.08C601.18 596.08 610.78 593.5 617.42 588.78C624.06 584.05 629.39 578.75 629.39 578.75C629.39 578.75 627.18 570.81 626.61 564.2C626.03 557.59 625.82 548.2 625.82 548.2Z" fill="black"/>
</g>
</g>
<g opacity="0.2">
<g opacity="0.2">
<path opacity="0.2" d="M659.51 557C650.84 566.43 642.3 594.9 635.5 594.33C635.5 594.33 642.41 605.15 645.1 607.86C647.8 610.57 651.13 613.5 651.13 613.5C651.13 613.5 646.62 599.47 648.14 588.69C651.12 567.39 659.51 557 659.51 557Z" fill="black"/>
</g>
</g>
<defs>
<linearGradient id="paint0_linear" x1="348.624" y1="377" x2="820.74" y2="377" gradientUnits="userSpaceOnUse">
<stop stop-color="#007BFB"/>
<stop offset="0.32" stop-color="#007BFB" stop-opacity="0.98"/>
<stop offset="0.54" stop-color="#007BFB" stop-opacity="0.8"/>
<stop offset="0.74" stop-color="#007BFB" stop-opacity="0.66"/>
<stop offset="0.92" stop-color="#007BFB" stop-opacity="0.5"/>
<stop offset="1" stop-color="#007BFB" stop-opacity="0.25"/>
</linearGradient>
</defs>
</svg>
